name rise30.2954peak35.7071fall66.7804.mot
datacolumns 19
datarows 30
range 0.65667000000000 0.70500300000000
endheader
time	ground_force1_vx	ground_force1_vy	ground_force1_vz	ground_force1_px	ground_force1_py	ground_force1_pz	ground_force2_vx	ground_force2_vy	ground_force2_vz	ground_force2_px	ground_force2_py	ground_force2_pz	ground_torque1_x	ground_torque1_y	ground_torque1_z	ground_torque2_x	ground_torque2_y	ground_torque2_z	
0.65667000000000	15.28665200000000	698.30714899999998	53.80768500000000	0.20413700000000	0.00000000000000	0.13186200000000	0.00000000000000	0.00000000000000	0.00000000000000	0.00000000000000	0.00000000000000	0.00000000000000	0.00000000000000	17.52707600000000	0.00000000000000	0.00000000000000	0.00000000000000	0.00000000000000	
0.65835400000000	15.09297000000000	698.51227400000005	53.79935700000000	0.20340700000000	0.00000000000000	0.13177600000000	0.00000000000000	0.00000000000000	0.00000000000000	0.00000000000000	0.00000000000000	0.00000000000000	0.00000000000000	17.51211600000000	0.00000000000000	0.00000000000000	0.00000000000000	0.00000000000000	
0.66000600000000	14.88951000000000	698.77291700000001	53.79902100000000	0.20266400000000	0.00000000000000	0.13169000000000	0.00000000000000	0.00000000000000	0.00000000000000	0.00000000000000	0.00000000000000	0.00000000000000	0.00000000000000	17.50325200000000	0.00000000000000	0.00000000000000	0.00000000000000	0.00000000000000	
0.66167200000000	14.67573300000000	699.08797000000004	53.80637500000000	0.20190900000000	0.00000000000000	0.13160500000000	0.00000000000000	0.00000000000000	0.00000000000000	0.00000000000000	0.00000000000000	0.00000000000000	0.00000000000000	17.50042800000000	0.00000000000000	0.00000000000000	0.00000000000000	0.00000000000000	
0.66333500000000	14.45112900000000	699.45628899999997	53.82111000000000	0.20114100000000	0.00000000000000	0.13152000000000	0.00000000000000	0.00000000000000	0.00000000000000	0.00000000000000	0.00000000000000	0.00000000000000	0.00000000000000	17.50358700000000	0.00000000000000	0.00000000000000	0.00000000000000	0.00000000000000	
0.66500100000000	14.21522100000000	699.87670200000002	53.84291300000000	0.20036000000000	0.00000000000000	0.13143700000000	0.00000000000000	0.00000000000000	0.00000000000000	0.00000000000000	0.00000000000000	0.00000000000000	0.00000000000000	17.51266600000000	0.00000000000000	0.00000000000000	0.00000000000000	0.00000000000000	
0.66666800000000	13.96756700000000	700.34801500000003	53.87147000000000	0.19956500000000	0.00000000000000	0.13135500000000	0.00000000000000	0.00000000000000	0.00000000000000	0.00000000000000	0.00000000000000	0.00000000000000	0.00000000000000	17.52759700000000	0.00000000000000	0.00000000000000	0.00000000000000	0.00000000000000	
0.66833900000000	13.70776100000000	700.86901200000000	53.90646100000000	0.19875800000000	0.00000000000000	0.13127300000000	0.00000000000000	0.00000000000000	0.00000000000000	0.00000000000000	0.00000000000000	0.00000000000000	0.00000000000000	17.54830800000000	0.00000000000000	0.00000000000000	0.00000000000000	0.00000000000000	
0.67000100000000	13.43543300000000	701.43846599999995	53.94756900000000	0.19793700000000	0.00000000000000	0.13119200000000	0.00000000000000	0.00000000000000	0.00000000000000	0.00000000000000	0.00000000000000	0.00000000000000	0.00000000000000	17.57472400000000	0.00000000000000	0.00000000000000	0.00000000000000	0.00000000000000	
0.67167000000000	13.15025100000000	702.05513699999995	53.99447600000000	0.19710200000000	0.00000000000000	0.13111200000000	0.00000000000000	0.00000000000000	0.00000000000000	0.00000000000000	0.00000000000000	0.00000000000000	0.00000000000000	17.60676400000000	0.00000000000000	0.00000000000000	0.00000000000000	0.00000000000000	
0.67333600000000	12.85192400000000	702.71777999999995	54.04686400000000	0.19625500000000	0.00000000000000	0.13103300000000	0.00000000000000	0.00000000000000	0.00000000000000	0.00000000000000	0.00000000000000	0.00000000000000	0.00000000000000	17.64434400000000	0.00000000000000	0.00000000000000	0.00000000000000	0.00000000000000	
0.67500300000000	12.54019800000000	703.42514700000004	54.10441700000000	0.19539500000000	0.00000000000000	0.13095500000000	0.00000000000000	0.00000000000000	0.00000000000000	0.00000000000000	0.00000000000000	0.00000000000000	0.00000000000000	17.68737500000000	0.00000000000000	0.00000000000000	0.00000000000000	0.00000000000000	
0.67668300000000	12.21486100000000	704.17599099999995	54.16682500000000	0.19452300000000	0.00000000000000	0.13087700000000	0.00000000000000	0.00000000000000	0.00000000000000	0.00000000000000	0.00000000000000	0.00000000000000	0.00000000000000	17.73576300000000	0.00000000000000	0.00000000000000	0.00000000000000	0.00000000000000	
0.67833800000000	11.87574200000000	704.96906999999999	54.23377800000000	0.19363900000000	0.00000000000000	0.13080100000000	0.00000000000000	0.00000000000000	0.00000000000000	0.00000000000000	0.00000000000000	0.00000000000000	0.00000000000000	17.78941100000000	0.00000000000000	0.00000000000000	0.00000000000000	0.00000000000000	
0.68000500000000	11.52270900000000	705.80314999999996	54.30497100000000	0.19274300000000	0.00000000000000	0.13072400000000	0.00000000000000	0.00000000000000	0.00000000000000	0.00000000000000	0.00000000000000	0.00000000000000	0.00000000000000	17.84821800000000	0.00000000000000	0.00000000000000	0.00000000000000	0.00000000000000	
0.68166500000000	11.15567300000000	706.67700900000000	54.38010800000000	0.19183700000000	0.00000000000000	0.13064900000000	0.00000000000000	0.00000000000000	0.00000000000000	0.00000000000000	0.00000000000000	0.00000000000000	0.00000000000000	17.91207600000000	0.00000000000000	0.00000000000000	0.00000000000000	0.00000000000000	
0.68333100000000	10.77458300000000	707.58943499999998	54.45889400000000	0.19092000000000	0.00000000000000	0.13057400000000	0.00000000000000	0.00000000000000	0.00000000000000	0.00000000000000	0.00000000000000	0.00000000000000	0.00000000000000	17.98087600000000	0.00000000000000	0.00000000000000	0.00000000000000	0.00000000000000	
0.68500300000000	10.37943100000000	708.53923499999996	54.54104300000000	0.18999400000000	0.00000000000000	0.13049900000000	0.00000000000000	0.00000000000000	0.00000000000000	0.00000000000000	0.00000000000000	0.00000000000000	0.00000000000000	18.05450100000000	0.00000000000000	0.00000000000000	0.00000000000000	0.00000000000000	
0.68666600000000	9.97024800000000	709.52523099999996	54.62627800000000	0.18906000000000	0.00000000000000	0.13042500000000	0.00000000000000	0.00000000000000	0.00000000000000	0.00000000000000	0.00000000000000	0.00000000000000	0.00000000000000	18.13283300000000	0.00000000000000	0.00000000000000	0.00000000000000	0.00000000000000	
0.68834200000000	9.54710400000000	710.54626699999994	54.71432600000000	0.18811800000000	0.00000000000000	0.13035200000000	0.00000000000000	0.00000000000000	0.00000000000000	0.00000000000000	0.00000000000000	0.00000000000000	0.00000000000000	18.21574600000000	0.00000000000000	0.00000000000000	0.00000000000000	0.00000000000000	
0.68999800000000	9.11010800000000	711.60120500000005	54.80492500000000	0.18716800000000	0.00000000000000	0.13027900000000	0.00000000000000	0.00000000000000	0.00000000000000	0.00000000000000	0.00000000000000	0.00000000000000	0.00000000000000	18.30311200000000	0.00000000000000	0.00000000000000	0.00000000000000	0.00000000000000	
0.69166700000000	8.65940600000000	712.68893100000003	54.89782100000000	0.18621300000000	0.00000000000000	0.13020600000000	0.00000000000000	0.00000000000000	0.00000000000000	0.00000000000000	0.00000000000000	0.00000000000000	0.00000000000000	18.39479500000000	0.00000000000000	0.00000000000000	0.00000000000000	0.00000000000000	
0.69334100000000	8.19518200000000	713.80835400000001	54.99276900000000	0.18525200000000	0.00000000000000	0.13013300000000	0.00000000000000	0.00000000000000	0.00000000000000	0.00000000000000	0.00000000000000	0.00000000000000	0.00000000000000	18.49065800000000	0.00000000000000	0.00000000000000	0.00000000000000	0.00000000000000	
0.69500200000000	7.71765400000000	714.95840499999997	55.08953500000000	0.18428600000000	0.00000000000000	0.13006100000000	0.00000000000000	0.00000000000000	0.00000000000000	0.00000000000000	0.00000000000000	0.00000000000000	0.00000000000000	18.59055700000000	0.00000000000000	0.00000000000000	0.00000000000000	0.00000000000000	
0.69667000000000	7.22707500000000	716.13803900000005	55.18789200000000	0.18331600000000	0.00000000000000	0.12998800000000	0.00000000000000	0.00000000000000	0.00000000000000	0.00000000000000	0.00000000000000	0.00000000000000	0.00000000000000	18.69434300000000	0.00000000000000	0.00000000000000	0.00000000000000	0.00000000000000	
0.69835600000000	6.72373200000000	717.34623599999998	55.28762800000000	0.18234400000000	0.00000000000000	0.12991600000000	0.00000000000000	0.00000000000000	0.00000000000000	0.00000000000000	0.00000000000000	0.00000000000000	0.00000000000000	18.80186200000000	0.00000000000000	0.00000000000000	0.00000000000000	0.00000000000000	
0.70000400000000	6.20794000000000	718.58199700000000	55.38853600000000	0.18136900000000	0.00000000000000	0.12984400000000	0.00000000000000	0.00000000000000	0.00000000000000	0.00000000000000	0.00000000000000	0.00000000000000	0.00000000000000	18.91295600000000	0.00000000000000	0.00000000000000	0.00000000000000	0.00000000000000	
0.70166700000000	5.68004700000000	719.84434599999997	55.49042500000000	0.18039300000000	0.00000000000000	0.12977200000000	0.00000000000000	0.00000000000000	0.00000000000000	0.00000000000000	0.00000000000000	0.00000000000000	0.00000000000000	19.02746300000000	0.00000000000000	0.00000000000000	0.00000000000000	0.00000000000000	
0.70333700000000	5.14042900000000	721.13233000000002	55.59311100000000	0.17941600000000	0.00000000000000	0.12970000000000	0.00000000000000	0.00000000000000	0.00000000000000	0.00000000000000	0.00000000000000	0.00000000000000	0.00000000000000	19.14521500000000	0.00000000000000	0.00000000000000	0.00000000000000	0.00000000000000	
0.70500300000000	4.58948500000000	722.44501400000001	55.69642300000000	0.17843900000000	0.00000000000000	0.12962800000000	0.00000000000000	0.00000000000000	0.00000000000000	0.00000000000000	0.00000000000000	0.00000000000000	0.00000000000000	19.26603900000000	0.00000000000000	0.00000000000000	0.00000000000000	0.00000000000000	
